<?xml version="1.0" encoding="UTF-8" standalone="no"?>
<!DOCTYPE svg PUBLIC "-//W3C//DTD SVG 1.1//EN" "http://www.w3.org/Graphics/SVG/1.1/DTD/svg11.dtd">
<svg width="100%" height="100%" viewBox="0 0 512 512" version="1.1" xmlns="http://www.w3.org/2000/svg" xmlns:xlink="http://www.w3.org/1999/xlink" xml:space="preserve" xmlns:serif="http://www.serif.com/" style="fill-rule:evenodd;clip-rule:evenodd;stroke-linejoin:round;stroke-miterlimit:2;">
    <g>
        <path d="M416,0C361.224,0 320,77.648 320,128C320,168.648 346.032,205 384,218.448L384,480C384,497.648 398.352,512 416,512C433.648,512 448,497.648 448,480L448,218.448C485.968,205.008 512,168.656 512,128C512,77.648 470.776,-0 416,-0ZM437.816,204.904C434.376,205.88 432,209.024 432,212.6L432,480C432,488.824 424.816,496 416,496C407.176,496 400,488.824 400,480L400,212.6C400,209.024 397.624,205.88 394.176,204.904C359.92,195.2 336,163.576 336,128C336,83.776 371.832,16 416,16C460.16,16 496,83.776 496,128C496,163.576 472.08,195.2 437.816,204.904Z" style="fill:white;fill-rule:nonzero;"/>
        <path d="M192,128L192,24C192,10.768 181.232,0 168,0C154.768,0 144,10.768 144,24L144,96L120,96L120,24C120,10.768 109.232,0 96,0C82.768,0 72,10.768 72,24L72,96L48,96L48,24C48,10.768 37.232,0 24,0C10.768,0 0,10.768 0,24L0,128C0,168.648 26.032,205 64,218.448L64,480C64,497.648 78.352,512 96,512C113.648,512 128,497.648 128,480L128,218.448C165.968,205 192,168.648 192,128ZM117.816,204.904C114.376,205.88 112,209.024 112,212.6L112,480C112,488.824 104.816,496 96,496C87.176,496 80,488.824 80,480L80,212.6C80,209.024 77.624,205.88 74.176,204.904C39.92,195.2 16,163.576 16,128L16,24C16,19.592 19.584,16 24,16C28.416,16 32,19.592 32,24L32,104C32,108.416 35.576,112 40,112L80,112C84.424,112 88,108.416 88,104L88,24C88,19.592 91.584,16 96,16C100.416,16 104,19.592 104,24L104,104C104,108.416 107.576,112 112,112L152,112C156.424,112 160,108.416 160,104L160,24C160,19.592 163.584,16 168,16C172.416,16 176,19.592 176,24L176,128C176,163.576 152.08,195.2 117.816,204.904Z" style="fill:white;fill-rule:nonzero;"/>
        <path d="M152.576,128.088C148.168,127.424 144.136,130.472 143.504,134.848C140.76,153.56 127.256,168.976 109.088,174.12C104.84,175.32 102.368,179.744 103.576,183.992C104.568,187.52 107.776,189.816 111.264,189.816C111.992,189.816 112.728,189.712 113.448,189.504C137.672,182.648 155.68,162.096 159.328,137.152C159.976,132.784 156.952,128.72 152.576,128.088Z" style="fill:white;fill-rule:nonzero;"/>
        <path d="M264,224C264,219.584 260.424,216 256,216C211.888,216 176,251.888 176,296C176,300.416 179.576,304 184,304C188.424,304 192,300.416 192,296C192,260.712 220.712,232 256,232C260.424,232 264,228.416 264,224Z" style="fill:white;fill-rule:nonzero;"/>
        <path d="M293.68,309.68C295.12,308.16 296,306.08 296,304C296,301.92 295.12,299.84 293.68,298.32C290.72,295.36 285.28,295.36 282.32,298.32C280.872,299.84 280,301.92 280,304C280,306.08 280.872,308.16 282.32,309.68C283.832,311.12 285.92,312 288,312C290.08,312 292.152,311.12 293.68,309.68Z" style="fill:white;fill-rule:nonzero;"/>
        <path d="M325.68,330.32C322.72,327.36 317.28,327.36 314.32,330.32C312.872,331.84 312,333.92 312,336C312,338.08 312.8,340.16 314.32,341.68C315.832,343.12 317.92,344 320,344C322.08,344 324.152,343.12 325.68,341.68C327.12,340.16 328,338.08 328,336C328,333.92 327.12,331.84 325.68,330.32Z" style="fill:white;fill-rule:nonzero;"/>
        <path d="M317.656,306.344C314.528,303.216 309.472,303.216 306.344,306.344L290.344,322.344C287.216,325.472 287.216,330.528 290.344,333.656C291.904,335.216 293.952,336 296,336C298.048,336 300.096,335.216 301.656,333.656L317.656,317.656C320.784,314.528 320.784,309.472 317.656,306.344Z" style="fill:white;fill-rule:nonzero;"/>
        <path d="M288,240C290.152,240 292.152,239.12 293.68,237.68C295.12,236.16 296,234.08 296,232C296,229.92 295.12,227.84 293.68,226.32C290.72,223.36 285.28,223.36 282.32,226.32C280.872,227.84 280,229.92 280,232C280,234.08 280.872,236.16 282.32,237.68C283.832,239.12 285.832,240 288,240Z" style="fill:white;fill-rule:nonzero;"/>
        <path d="M461.16,67.84C458.864,64.08 453.952,62.864 450.168,65.168C446.4,67.464 445.192,72.384 447.488,76.16C457.824,93.144 464,112.52 464,128C464,149.336 449.648,168.296 429.096,174.112C424.848,175.312 422.376,179.736 423.584,183.992C424.576,187.52 427.784,189.816 431.272,189.816C432,189.816 432.736,189.712 433.456,189.512C460.856,181.752 480,156.456 480,128C480,109.44 473.136,87.512 461.16,67.84Z" style="fill:white;fill-rule:nonzero;"/>
        <path d="M440,56C442.08,56 444.152,55.12 445.68,53.68C447.12,52.16 448,50.08 448,48C448,45.92 447.12,43.84 445.68,42.32C442.64,39.36 437.28,39.36 434.32,42.32C432.872,43.84 432,45.92 432,48C432,50.08 432.872,52.16 434.32,53.68C435.832,55.12 437.92,56 440,56Z" style="fill:white;fill-rule:nonzero;"/>
        <path d="M256,184C194.24,184 144,234.24 144,296C144,357.76 194.24,408 256,408C317.76,408 368,357.76 368,296C368,266.08 356.352,237.96 335.192,216.808C314.04,195.648 285.912,184 256,184ZM160,296C160,243.064 203.064,200 256,200C278.952,200 300.688,208 317.992,222.688L250.344,290.344C248.84,291.84 248,293.88 248,296L248,391.664C198.8,387.592 160,346.24 160,296ZM264,391.664L264,299.312L329.304,234.008C343.992,251.32 352,273.04 352,296C352,346.24 313.2,387.592 264,391.664Z" style="fill:white;fill-rule:nonzero;"/>
    </g>
</svg>
