<?xml version="1.0" encoding="UTF-8" standalone="no"?>
<!DOCTYPE svg PUBLIC "-//W3C//DTD SVG 1.1//EN" "http://www.w3.org/Graphics/SVG/1.1/DTD/svg11.dtd">
<svg width="100%" height="100%" viewBox="0 0 64 64" version="1.1" xmlns="http://www.w3.org/2000/svg" xmlns:xlink="http://www.w3.org/1999/xlink" xml:space="preserve" xmlns:serif="http://www.serif.com/" style="fill-rule:evenodd;clip-rule:evenodd;stroke-linejoin:round;stroke-miterlimit:2;">
    <g id="_10_Medicine">
        <g>
            <path d="M58.7,54.286L42,37.912C39.879,35.875 38.592,33.118 38.391,30.184C41.55,27.288 46.459,27.288 49.618,30.184C49.419,33.087 48.155,35.816 46.07,37.845C45.893,38.031 45.795,38.278 45.795,38.534C45.795,39.083 46.246,39.534 46.795,39.534C47.069,39.534 47.331,39.422 47.52,39.223C49.384,37.324 50.7,34.956 51.328,32.37C53.212,35.309 52.826,39.19 50.4,41.7L50.083,42.113C49.948,42.288 49.876,42.502 49.876,42.723C49.876,43.272 50.327,43.723 50.876,43.723C51.186,43.723 51.48,43.579 51.669,43.333L51.946,42.969C56.846,37.375 53.675,31.407 51.316,29.033C49.377,27.094 46.744,26.003 44.002,26.003C41.26,26.003 38.627,27.094 36.688,29.033C34.33,31.407 31.163,37.376 36.025,42.927L52.218,63.617C52.406,63.857 52.695,63.998 53,64L53.053,64C53.38,63.984 53.679,63.809 53.853,63.531L58.853,55.531C59.1,55.133 59.036,54.612 58.7,54.286ZM52.908,61.26L37.56,41.651C35.166,39.144 34.8,35.291 36.679,32.378C37.32,35.003 38.667,37.404 40.574,39.319L56.726,55.151L52.908,61.26Z" style="fill:white;fill-rule:nonzero;"/>
            <path d="M40.7,54.316L35.1,61.277L31.286,55.177L37.438,49.559C37.645,49.37 37.764,49.101 37.764,48.82C37.764,48.272 37.312,47.82 36.764,47.82C36.514,47.82 36.273,47.914 36.089,48.082L29.322,54.263C28.967,54.587 28.894,55.124 29.149,55.531L34.149,63.531C34.321,63.806 34.616,63.981 34.94,64L35,64C35.303,64 35.59,63.862 35.779,63.626L42.256,55.569C42.381,55.398 42.448,55.191 42.448,54.979C42.448,54.431 41.997,53.979 41.448,53.979C41.162,53.979 40.89,54.102 40.7,54.316Z" style="fill:white;fill-rule:nonzero;"/>
            <path d="M46.579,33.934C46.843,33.453 46.665,32.84 46.185,32.576C44.827,31.821 43.171,31.821 41.813,32.576C41.494,32.752 41.295,33.088 41.295,33.452C41.295,34.001 41.747,34.452 42.295,34.452C42.296,34.452 42.297,34.452 42.298,34.452C42.467,34.452 42.633,34.409 42.78,34.327C43.536,33.897 44.466,33.897 45.222,34.327C45.702,34.591 46.314,34.414 46.579,33.934Z" style="fill:white;fill-rule:nonzero;"/>
            <path d="M29,60L10,60C8.354,60 7,58.646 7,57L7,27.487C6.995,22.264 10.359,17.596 15.316,15.949C15.723,15.813 16,15.429 16,15L16,12L38,12L38,15C38,15.429 38.277,15.813 38.684,15.949C42.347,17.178 45.216,20.075 46.41,23.749C46.543,24.16 46.929,24.441 47.361,24.441C47.466,24.441 47.569,24.424 47.669,24.393C48.08,24.26 48.361,23.874 48.361,23.442C48.361,23.337 48.344,23.233 48.312,23.133C47,19.097 43.948,15.854 40,14.3L40,12C41.646,12 43,10.646 43,9L43,3C43,1.354 41.646,0 40,0L14,0C12.354,0 11,1.354 11,3L11,9C11,10.646 12.354,12 14,12L14,14.3C8.58,16.415 4.995,21.669 5,27.487L5,57C5.003,59.742 7.258,61.997 10,62L29,62C29.549,62 30,61.549 30,61C30,60.451 29.549,60 29,60ZM13,9L13,3C13,2.451 13.451,2 14,2L40,2C40.549,2 41,2.451 41,3L41,9C41,9.549 40.549,10 40,10L14,10C13.451,10 13,9.549 13,9Z" style="fill:white;fill-rule:nonzero;"/>
            <path d="M21,25L17,25C16.451,25 16,25.451 16,26L16,30L12,30C11.451,30 11,30.451 11,31L11,35C11,35.549 11.451,36 12,36L16,36L16,40C16,40.549 16.451,41 17,41L21,41C21.549,41 22,40.549 22,40L22,36L26,36C26.549,36 27,35.549 27,35L27,31C27,30.451 26.549,30 26,30L22,30L22,26C22,25.451 21.549,25 21,25ZM25,32L25,34L21,34C20.451,34 20,34.451 20,35L20,39L18,39L18,35C18,34.451 17.549,34 17,34L13,34L13,32L17,32C17.549,32 18,31.549 18,31L18,27L20,27L20,31C20,31.549 20.451,32 21,32L25,32Z" style="fill:white;fill-rule:nonzero;"/>
            <path d="M28,45L14,45C13.451,45 13,45.451 13,46C13,46.549 13.451,47 14,47L28,47C28.549,47 29,46.549 29,46C29,45.451 28.549,45 28,45Z" style="fill:white;fill-rule:nonzero;"/>
            <path d="M12,51L28,51C28.549,51 29,50.549 29,50C29,49.451 28.549,49 28,49L12,49C11.451,49 11,49.451 11,50C11,50.549 11.451,51 12,51Z" style="fill:white;fill-rule:nonzero;"/>
        </g>
    </g>
</svg>
