<svg xmlns="http://www.w3.org/2000/svg" viewBox="0 0 349.08 126.91"><defs><style>.cls-1{fill:#f74535;}</style></defs><g id="Layer_2" data-name="Layer 2"><g id="Layer_1-2" data-name="Layer 1"><path class="cls-1" d="M110.48,90.9q-6,17.66-20,26.83t-32.25,9.18q-17.83,0-30.85-7.69A51.8,51.8,0,0,1,7.17,97.28Q0,83,0,63.45T7.17,29.63A51.8,51.8,0,0,1,27.36,7.69Q40.38,0,57.86,0q18.89,0,31.9,8.22a47.05,47.05,0,0,1,19,23.42L90,39.68q-8-22-31.46-22-17.48,0-28.14,11.79t-10.67,34q0,21.69,10.32,33.74t28.31,12.06q11.9,0,20.37-6.29T90.9,84.43Z"/><path class="cls-1" d="M129.18,125V1.92H177.6q21.85,0,32.25,8.92t10.4,24.65a28.59,28.59,0,0,1-5.59,17.39,24.18,24.18,0,0,1-15.38,9.53v.17q11.17,2.1,17.56,10a28.26,28.26,0,0,1,6.38,18.36q0,15.73-11.1,24.91t-33,9.18Zm19-70.28h28.5q23.6,0,23.59-18.18,0-18-23.59-18h-28.5Zm0,53.67H178.3q25.17,0,25.17-18.7,0-18.36-23.77-18.36H148.23Z"/><path class="cls-1" d="M287.9,1.92q28.85,0,45,15.91t16.17,45.45q0,29.72-16.17,45.71t-45,16H244.55V1.92Zm-.17,105.76q19.92,0,30.67-11.54t10.75-32.86q0-21.15-10.75-32.6T287.73,19.23h-24v88.45Z"/></g></g></svg>