<svg xmlns="http://www.w3.org/2000/svg" viewBox="0 0 491.81 520"><defs><style>.cls-1{fill:none;stroke:#2852b6;stroke-miterlimit:10;stroke-width:8px;fill-rule:evenodd;}</style></defs><g id="Layer_2" data-name="Layer 2"><g id="Layer_1-2" data-name="Layer 1"><g id="Layer_1-3" data-name="Layer_1"><g id="_412913736" data-name=" 412913736"><path class="cls-1" d="M259.85,516H231.36a7.37,7.37,0,0,1-7.2-7.5v-111c-12.3,14.1-33.9,31.5-72.89,48.89a6,6,0,0,1-7.5-1.2c-2.1-1.5-3-4.5-2.4-7.49.3-2.1,9.3-36,31.2-63.89-31.2,6-84.29,4.8-164.07-27.9a7.77,7.77,0,0,1-4.5-6.3c0-3,1.2-5.39,3.6-6.59,3.3-1.8,65.09-36.3,131.67-35.1C108.68,276.05,70,233.16,49.59,151.87c-.3-2.4,0-4.8,1.8-6.6a8.78,8.78,0,0,1,6.6-2.1c3.9.9,80.38,15.6,134.07,75.89-6-41.69-2.7-111.58,47.39-210.86a7.29,7.29,0,0,1,13.2,0c50.09,99.28,53.69,169.47,47.39,210.86,53.69-60.89,130.18-75.29,134.08-76.19,2.4-.3,5.1.3,6.59,2.1a6.59,6.59,0,0,1,1.8,6.6c-20.39,81-59.08,123.58-90,145.47,66.59-.6,128.08,33.3,131.38,35.1,2.7,1.2,3.9,4.2,3.9,6.59a6.89,6.89,0,0,1-4.5,6.3c-80.09,33-132.88,34.2-164.37,28.2,21.59,27.89,30.59,62.09,31.19,64.19.9,3,0,5.39-2.7,7.49a8.26,8.26,0,0,1-7.5,1.2c-39-17.39-60.28-35.09-72.28-49.19V508.2C267.35,512.7,264.05,516,259.85,516Zm-21-14.7h13.8v-135a7.11,7.11,0,0,1,7.2-7.2c4.2,0,6.9,3.3,6.9,7.5,0,.9,2.7,28.19,63,59.09-7.2-18-21-47.09-42.9-62.39-3.89-2.1-5.69-3.9-6.29-3.9-3-2.4-3.6-6.6-1.5-9.3,2.1-3.6,6-4.2,9.29-2.1a18.57,18.57,0,0,1,5.1,3.3c14.1,7.5,64.79,26.1,167.67-12.6-27.89-12.29-91.18-36.59-147-20.69a60.09,60.09,0,0,1-6.6,2.1,7.33,7.33,0,0,1-8.7-5.1,7,7,0,0,1,4.5-8.7,25.53,25.53,0,0,0,5.1-1.8c18-6,84-36.59,114.88-143.37-27.9,7.8-100.18,33.59-137.38,101.38a9.1,9.1,0,0,1-.89,1.8,7.16,7.16,0,0,1-9.9,2.4,8,8,0,0,1-3-9.9c0-.3.6-.9.6-.9,4.2-7.8,39-84.28-28.8-227.35-67.48,142.17-33.29,217.75-28.19,227.05.3.3.3.9.9,1.2,1.8,3.3.3,7.8-3,9.9a7.29,7.29,0,0,1-9.9-2.4c0-.3-.6-.9-.9-1.8C165.67,194.76,93.38,169,65.49,161.17,97.58,267.35,163,297,181.27,303.94c1.5.3,3.59,1.2,5.39,1.5a7,7,0,0,1,4.5,8.7,7.33,7.33,0,0,1-8.69,5.1,60.09,60.09,0,0,1-6.6-2.1c-56.39-15.3-119.08,8.4-147,20.69,102.88,38.7,153.57,20.1,167.66,12.6,1.8-1.2,3.3-2.1,5.1-3.3a7.44,7.44,0,0,1,9.6,2.1c1.8,3.3,1.5,7.5-1.8,9.6a65.1,65.1,0,0,1-6.3,3.6c-21.89,15.6-36,44.69-42.89,62.39,61.79-30,63.89-57.29,64.19-58.19a7,7,0,0,1,6.9-7.2,7.52,7.52,0,0,1,7.49,6.9v135Z"/><path class="cls-1" d="M245.75,354a7.43,7.43,0,0,1-7.5-7.5V229a7.5,7.5,0,0,1,15,0V347.13C252.65,350.73,250,354,245.75,354Z"/><path class="cls-1" d="M245.75,349.23h-.6a7.4,7.4,0,0,1-6.6-8.1c3-48,61.49-69.88,64.19-70.48,3.6-1.2,7.8.3,9,4.5s-.3,7.8-4.2,9c-.3,0-51.89,19.79-54.89,58.48A6.92,6.92,0,0,1,245.75,349.23Z"/><path class="cls-1" d="M245.75,349.23c-3.9,0-7.2-3-7.2-6.6-2.4-39.29-54-58.48-54.89-58.48a7.3,7.3,0,0,1-4.49-9,7,7,0,0,1,9-4.5c2.7.6,61.79,22.49,64.49,71.08a7,7,0,0,1-6.6,7.8A.29.29,0,0,0,245.75,349.23Z"/></g></g></g></g></svg>