<?xml version="1.0" encoding="UTF-8" standalone="no"?><!DOCTYPE svg PUBLIC "-//W3C//DTD SVG 1.1//EN" "http://www.w3.org/Graphics/SVG/1.1/DTD/svg11.dtd"><svg width="100%" height="100%" viewBox="0 0 512 512" version="1.1" xmlns="http://www.w3.org/2000/svg" xmlns:xlink="http://www.w3.org/1999/xlink" xml:space="preserve" xmlns:serif="http://www.serif.com/" style="fill-rule:evenodd;clip-rule:evenodd;stroke-linejoin:round;stroke-miterlimit:2;"><g id="Layer_x0020_1"><g id="_412913736"><g><g><path d="M269.947,512l-28.494,0c-3.899,0 -7.199,-3.299 -7.199,-7.499l0,-110.978c-12.297,14.097 -33.893,31.494 -72.886,48.891c-2.699,1.499 -5.398,0.899 -7.498,-1.2c-2.1,-1.5 -2.999,-4.499 -2.4,-7.499c0.3,-2.099 9.299,-35.993 31.194,-63.887c-31.194,5.999 -84.283,4.799 -164.068,-27.895c-2.399,-1.2 -4.199,-3.299 -4.499,-6.299c0,-2.999 1.2,-5.398 3.6,-6.598c3.299,-1.8 65.087,-36.293 131.674,-35.093c-30.594,-21.896 -69.287,-64.788 -89.683,-146.072c-0.3,-2.399 0,-4.799 1.8,-6.599c1.8,-1.499 4.199,-2.399 6.599,-2.099c3.899,0.9 80.384,15.597 134.074,75.885c-5.999,-41.692 -2.7,-111.578 47.39,-210.859c1.2,-2.699 3.6,-4.199 6.599,-4.199c2.999,0 5.399,1.5 6.599,4.199c50.09,99.281 53.689,169.467 47.39,210.859c53.69,-60.888 130.175,-75.285 134.074,-76.185c2.4,-0.3 5.099,0.3 6.599,2.099c1.8,1.5 2.399,4.2 1.8,6.599c-20.396,80.984 -59.089,123.576 -89.983,145.472c66.587,-0.6 128.075,33.293 131.375,35.093c2.699,1.2 3.899,4.199 3.899,6.599c-0,2.999 -2.1,5.399 -4.499,6.298c-80.085,32.994 -132.874,34.194 -164.368,28.195c21.596,27.894 30.594,62.088 31.194,64.187c0.899,3 -0,5.399 -2.7,7.499c-2.099,1.5 -4.799,2.099 -7.498,1.2c-38.993,-17.397 -60.289,-35.093 -72.286,-49.191l-0,111.279c-0.3,4.499 -3.6,7.798 -7.799,7.798Zm-20.996,-14.697l13.798,-0l-0,-134.974c-0,-4.199 3.299,-7.198 7.198,-7.198c4.199,-0 6.899,3.299 6.899,7.498c-0,0.9 2.699,28.195 62.988,59.089c-7.199,-17.997 -20.996,-47.091 -42.892,-62.388c-3.899,-2.1 -5.699,-3.899 -6.299,-3.899c-2.999,-2.4 -3.599,-6.599 -1.499,-9.299c2.099,-3.599 5.998,-4.199 9.298,-2.099c1.799,0.6 3.599,2.099 5.099,3.299c14.097,7.499 64.787,26.095 167.667,-12.597c-27.895,-12.298 -91.182,-36.593 -146.971,-20.696c-3.6,1.199 -5.999,2.099 -6.599,2.099c-3.599,0.9 -7.499,-1.2 -8.698,-5.099c-1.2,-3.599 0.899,-7.498 4.499,-8.698c1.799,-0.3 3.599,-1.2 5.099,-1.8c17.996,-5.999 83.983,-36.593 114.877,-143.372c-27.894,7.799 -100.18,33.594 -137.373,101.381c-0.3,0.899 -0.9,1.799 -0.9,1.799c-2.099,3.3 -5.998,4.499 -9.898,2.4c-3.299,-2.1 -4.499,-6.299 -2.999,-9.898c-0,-0.3 0.6,-0.9 0.6,-0.9c4.199,-7.799 38.992,-84.284 -28.795,-227.356c-67.486,142.172 -33.293,217.758 -28.194,227.056c0.3,0.3 0.3,0.9 0.9,1.2c1.799,3.299 0.3,7.798 -3,9.898c-3.299,2.099 -7.798,0.9 -9.898,-2.4c0,-0.3 -0.6,-0.9 -0.9,-1.799c-37.192,-67.787 -109.478,-93.582 -137.373,-101.381c32.094,106.18 97.481,135.874 115.778,142.772c1.499,0.3 3.599,1.2 5.399,1.5c3.599,1.2 5.698,5.099 4.499,8.698c-1.2,3.9 -5.099,5.999 -8.699,5.099c-0.599,0 -2.999,-0.899 -6.598,-2.099c-56.389,-15.297 -119.077,8.398 -146.972,20.696c102.88,38.692 153.57,20.096 167.668,12.597c1.799,-1.199 3.299,-2.099 5.099,-3.299c3.299,-1.8 7.498,-0.9 9.598,2.1c1.799,3.299 1.499,7.498 -1.8,9.598c-0.3,0.3 -2.399,1.499 -6.299,3.599c-21.895,15.597 -35.993,44.691 -42.891,62.388c61.788,-29.994 63.887,-57.289 64.187,-58.189c0,-4.199 3.3,-7.198 6.899,-7.198c3.899,-0 7.198,2.999 7.498,6.898l0,134.974Z" style="fill:#2852b6;"/></g><g><path d="M255.85,350.032c-4.199,-0 -7.499,-3.3 -7.499,-7.499l0,-117.577c0,-4.199 3.3,-7.498 7.499,-7.498c4.199,-0 7.499,3.299 7.499,7.498l-0,118.177c-0.6,3.599 -3.3,6.899 -7.499,6.899Z" style="fill:#2852b6;"/></g><g><path d="M255.85,345.233l-0.6,-0c-4.199,-0.6 -6.899,-3.9 -6.599,-8.099c3,-47.99 61.488,-69.886 64.188,-70.486c3.599,-1.2 7.798,0.3 8.998,4.499c1.2,4.199 -0.3,7.799 -4.199,8.998c-0.3,0 -51.89,19.796 -54.889,58.489c-0,3.599 -3.3,6.599 -6.899,6.599Z" style="fill:#2852b6;"/></g><g><path d="M255.85,345.233c-3.899,-0 -7.199,-3 -7.199,-6.599c-2.399,-39.292 -53.989,-58.489 -54.889,-58.489c-3.599,-1.199 -5.699,-5.399 -4.499,-8.998c1.2,-3.899 5.399,-5.699 8.998,-4.499c2.7,0.6 61.788,22.496 64.488,71.086c0.6,4.199 -2.7,7.499 -6.599,7.799c-0,-0.3 -0.3,-0.3 -0.3,-0.3Z" style="fill:#2852b6;"/></g></g></g></g></svg>