<?xml version="1.0" encoding="UTF-8" standalone="no"?>
<!DOCTYPE svg PUBLIC "-//W3C//DTD SVG 1.1//EN" "http://www.w3.org/Graphics/SVG/1.1/DTD/svg11.dtd">
<svg width="100%" height="100%" viewBox="0 0 512 512" version="1.1" xmlns="http://www.w3.org/2000/svg" xmlns:xlink="http://www.w3.org/1999/xlink" xml:space="preserve" xmlns:serif="http://www.serif.com/" style="fill-rule:evenodd;clip-rule:evenodd;stroke-linejoin:round;stroke-miterlimit:2;">
    <g>
        <path d="M198.693,227.912C198.693,259.511 224.4,285.218 255.999,285.218C287.599,285.218 313.306,259.511 313.306,227.912C313.306,196.312 287.599,170.605 255.999,170.605C224.4,170.605 198.693,196.312 198.693,227.912ZM283.29,227.912C283.29,242.96 271.048,255.202 256,255.202C240.953,255.202 228.711,242.96 228.711,227.912C228.711,212.864 240.953,200.622 256,200.622C271.048,200.622 283.29,212.864 283.29,227.912Z" style="fill:white;fill-rule:nonzero;"/>
        <path d="M460.798,286.565L410.808,299.961L377.734,280.866L377.734,174.957L410.808,155.863L460.798,169.258L468.567,140.263L427.069,129.145L438.188,87.646L409.193,79.878L395.799,129.867L362.725,148.962L271.007,96.008L271.007,57.82L307.602,21.225L286.378,-0L256,30.378L225.621,-0L204.396,21.225L240.991,57.82L240.991,96.009L149.273,148.964L116.199,129.869L102.805,79.88L73.812,87.647L84.931,129.146L43.433,140.264L51.202,169.259L101.192,155.864L134.266,174.959L134.266,280.867L101.192,299.962L51.202,286.566L43.433,315.562L84.931,326.68L73.812,368.177L102.807,375.945L116.201,325.956L149.275,306.862L240.993,359.815L240.993,405.455C240.993,464.204 288.789,512 347.537,512L436.687,512L436.687,481.983L390.308,481.983L413.324,446.393L388.119,430.093L354.56,481.983L347.537,481.983C305.34,481.983 271.009,447.652 271.009,405.455L271.009,359.815L362.728,306.862L395.802,325.956L409.196,375.945L438.191,368.177L427.072,326.679L468.57,315.561L460.798,286.565ZM347.718,280.866L255.999,333.82L164.281,280.866L164.281,174.958L255.999,122.004L347.718,174.958L347.718,280.866Z" style="fill:white;fill-rule:nonzero;"/>
    </g>
</svg>
