<svg xmlns="http://www.w3.org/2000/svg" viewBox="0 0 456 410.47"><defs><style>.cls-1{fill:none;stroke:#8134f7;stroke-miterlimit:10;stroke-width:8px;}</style></defs><g id="Layer_2" data-name="Layer 2"><g id="glipy"><path class="cls-1" d="M448.29,293.3A635.68,635.68,0,0,0,378,256.17c29.53-48.82,47.22-124.84,48-128.2a8,8,0,0,0-9.61-9.6c-3.12.72-71.93,16.81-120.59,43.53-1-57.61-58.57-150.44-61.05-154.36a8.32,8.32,0,0,0-11.57-2,8.59,8.59,0,0,0-2,2c-2.48,3.92-59.77,96.35-61.05,154C111.57,135,43.47,119.09,40.27,118.37a8.09,8.09,0,0,0-9.6,9.6c.79,3.36,18.48,79.14,47.85,127.88A640,640,0,0,0,7.7,293.3a8,8,0,0,0,0,13.52,617.38,617.38,0,0,0,76.5,39.93c9.12,3.92,18.16,7.44,26.89,10.48-7,22.33-10.73,38.73-10.89,39.45a8.12,8.12,0,0,0,9.61,9.6c2.88-.72,69.93-16.32,118.59-42.49C277,390,344,405.56,346.91,406.29a8.07,8.07,0,0,0,9.6-9.61c-.16-.8-3.92-17.2-10.88-39.69,29.08-8.1,104.39-49.83,102.66-50.17a8,8,0,0,0,2.44-11.08,7.89,7.89,0,0,0-2.44-2.44ZM324,293.14a8,8,0,0,1,0,16H247.28l18.41,18.32a8,8,0,0,1-11.37,11.37L236,320.42v12.73a8,8,0,0,1-16,0V320.42l-18.32,18.41a8,8,0,0,1-11.36-11.37l18.4-18.32H132a8,8,0,0,1,0-16h76.74l-82.42-82.35a8,8,0,0,1,11.36-11.36L220,281.85V141.1a8,8,0,0,1,16,0V281.85l82.34-82.42A8,8,0,0,1,329.7,210.8l-82.42,82.34Z"/></g></g></svg>