<?xml version="1.0" encoding="UTF-8" standalone="no"?>
<!DOCTYPE svg PUBLIC "-//W3C//DTD SVG 1.1//EN" "http://www.w3.org/Graphics/SVG/1.1/DTD/svg11.dtd">
<svg width="100%" height="100%" viewBox="0 0 512 512" version="1.1" xmlns="http://www.w3.org/2000/svg" xmlns:xlink="http://www.w3.org/1999/xlink" xml:space="preserve" xmlns:serif="http://www.serif.com/" style="fill-rule:evenodd;clip-rule:evenodd;stroke-linejoin:round;stroke-miterlimit:2;">
    <g>
        <rect x="157.815" y="136.24" width="15.01" height="15.01" style="fill:white;fill-rule:nonzero;"/>
        <rect x="187.836" y="136.24" width="15.01" height="15.01" style="fill:white;fill-rule:nonzero;"/>
        <path d="M423.176,122.712L437.651,118.741C436.263,113.68 434.606,108.632 432.726,103.737L418.714,109.12C420.417,113.554 421.918,118.126 423.176,122.712Z" style="fill:white;fill-rule:nonzero;"/>
        <rect x="246.876" y="31.263" width="15.01" height="15.01" style="fill:white;fill-rule:nonzero;"/>
        <path d="M230.005,272.491L216.036,266.998C206.582,291.81 170.752,292.291 160.493,267.87L146.704,273.803C162.101,310.442 215.836,309.689 230.005,272.491Z" style="fill:white;fill-rule:nonzero;"/>
        <path d="M322.354,286.038C310.341,286.038 299.51,278.907 294.762,267.87L280.973,273.803C296.099,309.853 348.614,309.842 363.733,273.806L349.946,267.872C345.197,278.907 334.366,286.038 322.354,286.038Z" style="fill:white;fill-rule:nonzero;"/>
        <path d="M370.548,240.114L380.834,229.183C368.487,217.564 352.349,211.165 335.395,211.165L278.691,211.165L278.691,226.175L335.395,226.175C348.511,226.175 360.996,231.125 370.548,240.114Z" style="fill:white;fill-rule:nonzero;"/>
        <path d="M233.213,226.175L233.213,211.165L175.845,211.165C158.891,211.165 142.754,217.564 130.406,229.183L140.692,240.114C150.245,231.125 162.729,226.175 175.844,226.175L233.213,226.175Z" style="fill:white;fill-rule:nonzero;"/>
        <path d="M214.911,369.761L206.292,382.05C233.103,403.871 278.163,403.871 304.974,382.05L296.355,369.761C275.114,386.296 234.558,386.354 214.911,369.761Z" style="fill:white;fill-rule:nonzero;"/>
        <path d="M395.31,375.093C402.705,357.324 407.719,338.27 410.498,316.92C430.792,304.315 443.287,281.829 443.287,257.885L443.287,161.974C443.013,150.592 442.396,140.573 441.123,134.493L426.32,136.98C429.601,151.098 427.875,209.839 428.279,226.301L412.635,226.301C412.413,124.538 345.346,52.683 239.612,61.82C221.614,51.704 221.425,26.065 239.335,15.821L282.902,15.821C338.195,15.821 388.002,46.524 412.886,95.949L426.294,89.199C399.936,35.79 342.598,0.261 282.901,0.813C224.641,-0.04 173.601,-2.753 126.119,37.616L105.546,-0L82.326,42.456L39.871,65.676L83.802,90.594C73.738,107.406 69.37,132.618 67.919,159.422L67.919,257.887C67.92,281.831 80.474,304.317 100.769,316.922C106.011,370.631 136.504,426.392 180.443,459.689L180.443,512L195.453,512L195.453,470.341C214.046,482.343 234.198,490.976 255.549,496.122C276.795,491.007 297.181,482.178 315.854,470.135L315.854,512L330.864,512L330.864,459.472C340.039,452.322 348.664,444.36 356.603,435.674L375.706,470.601L398.926,428.145L441.381,404.925L398.926,381.705L395.31,375.093ZM428.335,241.312C428.947,262.847 429.093,280.082 413.059,296.308L413.059,241.312L428.335,241.312ZM71.152,65.675L93.386,53.515L105.546,31.281L117.706,53.515L139.94,65.675L117.706,77.835L105.546,100.069L93.386,77.835L71.152,65.675ZM82.93,161.257C82.93,142.82 86.288,125.046 92.901,108.23L105.547,131.352L128.767,88.896L171.222,65.676L137.853,47.426C160.726,29.219 188.48,18.371 217.624,16.224C207.695,30.387 208.799,51.368 220.209,64.37C140.193,77.573 98.333,148.627 97.853,226.302L82.93,226.302L82.93,161.257ZM82.93,257.885L82.93,241.312L97.797,241.312L97.797,296.362C87.754,286.262 82.93,272.416 82.93,257.885ZM255.549,480.639C133.09,447.48 105.835,339.573 112.827,229.034L134.084,207.777C168.223,174.156 196.511,202.052 235.08,168.024L225.192,156.73C185.122,190.094 162.715,153.002 114.092,206.54C117.652,174.947 128.205,146.619 144.357,125.288C192.563,56.516 332.726,60.692 373.606,135.321C382.724,150.058 388.458,165.333 392.068,181.074C361.962,139.165 315.254,111.356 263.054,105.482L263.054,90.708L248.044,90.708C248.686,111.449 247.831,129.587 234.554,146.671L246.529,155.722C254.474,145.21 259.654,133.207 261.849,120.449C321.35,127.289 373.071,165.286 397.324,220.357C396.917,262.247 401.018,318.597 385.831,357.762L375.706,339.249L352.486,381.705L310.031,404.925L346.259,424.739C321.623,452.007 289.776,471.681 255.549,480.639ZM387.866,417.086L375.706,439.32L363.546,417.086L341.312,404.926L363.546,392.766L375.706,370.532L387.866,392.766L410.1,404.926L387.866,417.086Z" style="fill:white;fill-rule:nonzero;"/>
        <path d="M465.778,330.874L450.768,330.874L450.768,345.885L435.757,345.885L435.757,360.895L450.768,360.895L450.768,375.906L465.778,375.906L465.778,360.895L480.789,360.895L480.789,345.885L465.778,345.885L465.778,330.874Z" style="fill:white;fill-rule:nonzero;"/>
        <path d="M30.476,106.429L15.466,106.429L15.466,121.439L0.456,121.439L0.456,136.45L15.466,136.45L15.466,151.46L30.476,151.46L30.476,136.45L45.487,136.45L45.487,121.439L30.476,121.439L30.476,106.429Z" style="fill:white;fill-rule:nonzero;"/>
        <rect x="496.534" y="300.854" width="15.01" height="15.01" style="fill:white;fill-rule:nonzero;"/>
        <rect x="496.534" y="390.884" width="15.01" height="15.01" style="fill:white;fill-rule:nonzero;"/>
    </g>
</svg>
