<?xml version="1.0" encoding="UTF-8" standalone="no"?><!DOCTYPE svg PUBLIC "-//W3C//DTD SVG 1.1//EN" "http://www.w3.org/Graphics/SVG/1.1/DTD/svg11.dtd"><svg width="100%" height="100%" viewBox="0 0 512 512" version="1.1" xmlns="http://www.w3.org/2000/svg" xmlns:xlink="http://www.w3.org/1999/xlink" xml:space="preserve" xmlns:serif="http://www.serif.com/" style="fill-rule:evenodd;clip-rule:evenodd;stroke-linejoin:round;stroke-miterlimit:2;"><g><path d="M249.845,395.453c3.337,-1.9 4.859,-5.947 3.6,-9.575l-7.6,-21.893c-0.965,-2.782 -3.392,-4.815 -6.3,-5.278c-7.61,-1.21 -15.061,-3.267 -22.215,-6.132l-5.953,14.851c6.759,2.707 13.751,4.791 20.89,6.225l4.166,12.006c-5.263,5.028 -8.259,11.988 -8.294,19.267c0,14.93 12.5,27.076 27.862,27.076c15.362,0 27.862,-12.146 27.862,-27.077c-0.035,-7.279 -3.031,-14.238 -8.294,-19.266l4.167,-12.008c15.229,-3.082 29.717,-9.086 42.661,-17.68l11.449,5.549c-0.167,7.277 2.636,14.317 7.758,19.488c5.145,5.152 12.192,7.963 19.47,7.766c7.292,-0.154 14.245,-3.14 19.378,-8.321c10.862,-10.863 11.112,-28.29 0.556,-38.848c-5.171,-5.123 -12.211,-7.926 -19.488,-7.758l-5.55,-11.448c8.617,-12.981 14.631,-27.513 17.706,-42.788l11.759,-4.055c5.062,5.275 12.055,8.275 19.366,8.308c15,0 27.2,-12.5 27.2,-27.862c0,-15.362 -12.2,-27.862 -27.2,-27.862c-7.311,0.032 -14.305,3.032 -19.366,8.308l-11.758,-4.054c-1.434,-7.183 -3.526,-14.218 -6.25,-21.017l-14.852,5.954c2.882,7.193 4.946,14.687 6.153,22.341c0.46,2.918 2.501,5.354 5.294,6.317l21.643,7.463c3.616,1.247 7.646,-0.266 9.548,-3.585c1.919,-3.502 5.595,-5.698 9.588,-5.727c6.176,0 11.2,5.321 11.2,11.862c0,6.541 -5.024,11.862 -11.2,11.862c-3.993,-0.029 -7.669,-2.225 -9.588,-5.727c-1.902,-3.319 -5.932,-4.832 -9.549,-3.585l-21.642,7.464c-2.793,0.963 -4.834,3.399 -5.294,6.317c-2.568,16.127 -8.896,31.424 -18.473,44.651c-1.729,2.384 -2.007,5.536 -0.723,8.186l10.114,20.863c1.675,3.455 5.613,5.241 9.316,4.225c3.789,-1.131 7.908,-0.11 10.731,2.66c4.319,4.319 4.07,11.6 -0.555,16.221c-4.625,4.621 -11.9,4.874 -16.22,0.555c-2.769,-2.823 -3.791,-6.942 -2.661,-10.732c1.016,-3.703 -0.771,-7.64 -4.226,-9.315l-20.862,-10.113c-2.649,-1.284 -5.802,-1.006 -8.186,0.722c-13.192,9.552 -28.445,15.873 -44.526,18.453c-2.908,0.463 -5.335,2.496 -6.3,5.278l-7.6,21.893c-1.259,3.628 0.263,7.675 3.6,9.575c3.479,1.881 5.669,5.516 5.707,9.47c0,6.108 -5.321,11.077 -11.862,11.077c-6.541,0 -11.861,-4.969 -11.862,-11.077c0.038,-3.954 2.227,-7.588 5.705,-9.47Z" style="fill:#fff;fill-rule:nonzero;"/><path d="M107.077,283.862c7.279,-0.034 14.239,-3.03 19.266,-8.294l12.006,4.167c1.92,9.575 5.01,18.878 9.2,27.7l14.453,-6.866c-4.232,-8.905 -7.166,-18.372 -8.711,-28.11c-0.463,-2.908 -2.496,-5.335 -5.278,-6.3l-21.894,-7.6c-3.628,-1.259 -7.675,0.263 -9.575,3.6c-1.881,3.479 -5.515,5.669 -9.47,5.707c-6.105,-0.004 -11.074,-5.325 -11.074,-11.866c0,-6.541 4.969,-11.862 11.077,-11.862c3.955,0.038 7.589,2.228 9.47,5.707c1.9,3.337 5.947,4.859 9.575,3.6l21.894,-7.6c2.782,-0.966 4.814,-3.392 5.277,-6.3c2.587,-16.124 8.934,-31.414 18.527,-44.629c1.737,-2.389 2.015,-5.553 0.721,-8.208l-10.031,-20.59c-1.675,-3.439 -5.595,-5.219 -9.287,-4.217c-3.832,1.12 -7.984,0.073 -10.827,-2.73c-4.368,-4.367 -4.158,-11.682 0.466,-16.307c4.624,-4.625 11.942,-4.835 16.308,-0.468c2.802,2.844 3.849,6.996 2.73,10.829c-1.002,3.692 0.778,7.612 4.217,9.287l20.59,10.031c2.655,1.293 5.819,1.015 8.208,-0.722c13.25,-9.617 28.585,-15.972 44.754,-18.546c2.919,-0.46 5.355,-2.501 6.318,-5.295l7.463,-21.643c1.247,-3.617 -0.266,-7.647 -3.586,-9.549c-3.501,-1.918 -5.697,-5.595 -5.726,-9.587c0,-6.176 5.321,-11.2 11.862,-11.2c6.541,0 11.862,5.024 11.862,11.2c-0.029,3.992 -2.225,7.669 -5.726,9.587c-3.32,1.902 -4.833,5.932 -3.586,9.549l7.463,21.643c0.963,2.794 3.399,4.835 6.318,5.295c9.782,1.541 19.292,4.481 28.236,8.731l6.866,-14.452c-8.86,-4.21 -18.205,-7.31 -27.825,-9.229l-4.054,-11.758c5.275,-5.062 8.275,-12.055 8.308,-19.366c0,-15 -12.5,-27.2 -27.862,-27.2c-15.362,0 -27.862,12.2 -27.862,27.2c0.033,7.311 3.033,14.304 8.308,19.366l-4.055,11.76c-15.315,3.082 -29.884,9.119 -42.891,17.773l-11.2,-5.45c0.151,-7.31 -2.673,-14.376 -7.82,-19.569c-10.606,-10.6 -28.071,-10.394 -38.935,0.468c-10.864,10.862 -11.073,28.329 -0.468,38.934c5.191,5.149 12.258,7.973 19.568,7.821l5.455,11.196c-8.632,12.971 -14.662,27.498 -17.752,42.769l-12.008,4.167c-5.028,-5.263 -11.987,-8.259 -19.266,-8.294c-14.928,-0.004 -27.074,12.495 -27.074,27.858c0,15.363 12.146,27.862 27.077,27.862Z" style="fill:#fff;fill-rule:nonzero;"/><path d="M200,192c-13.166,0 -24,10.834 -24,24c0,13.166 10.834,24 24,24c13.166,0 24,-10.834 24,-24c-0.015,-13.16 -10.84,-23.985 -24,-24Zm0,32c-4.389,0 -8,-3.611 -8,-8c0,-4.389 3.611,-8 8,-8c4.389,0 8,3.611 8,8c-0.005,4.387 -3.613,7.995 -8,8Z" style="fill:#fff;fill-rule:nonzero;"/><rect x="168" y="256" width="16" height="16" style="fill:#fff;fill-rule:nonzero;"/><rect x="240" y="168" width="16" height="16" style="fill:#fff;fill-rule:nonzero;"/><rect x="336" y="248" width="16" height="16" style="fill:#fff;fill-rule:nonzero;"/><path d="M162.343,368.971l-48.668,48.668c-1.5,1.5 -2.343,3.536 -2.343,5.657c0,2.395 1.076,4.667 2.928,6.186c40.303,33.049 89.317,50.518 141.74,50.518c122.883,0 224,-101.117 224,-224c0,-52.424 -17.469,-101.437 -50.519,-141.741c-1.519,-1.852 -3.791,-2.927 -6.186,-2.927c-2.121,-0 -4.157,0.843 -5.657,2.343l-240.668,240.668l11.314,11.314l61.151,-61.151c4.665,13.529 20.189,23.494 38.565,23.494c22.056,0 40,-14.355 40,-32c0,-17.134 -16.921,-31.166 -38.1,-31.964l132.678,-132.673c26.899,35.964 41.442,79.69 41.442,124.601c-0,114.119 -93.901,208.027 -208.02,208.036c-44.955,0.228 -88.762,-14.33 -124.638,-41.421l42.3,-42.3l-11.319,-11.308Zm149.657,-72.971c0,8.673 -10.99,16 -24,16c-13.01,0 -24,-7.327 -24,-16c0,-8.673 10.99,-16 24,-16c13.01,0 24,7.327 24,16Z" style="fill:#fff;fill-rule:nonzero;"/><path d="M90.208,406.636c1.471,1.616 3.543,2.561 5.728,2.612l0.187,0c2.121,0 4.157,-0.843 5.657,-2.343l305.127,-305.126c1.499,-1.5 2.342,-3.536 2.342,-5.656c0,-2.251 -0.949,-4.4 -2.613,-5.915c-41.215,-37.447 -94.948,-58.211 -150.634,-58.211c-122.886,-0 -224.005,101.119 -224.005,224.005c-0,55.686 20.764,109.419 58.211,150.634Zm18.714,-297.714c75.807,-75.798 198.422,-81.22 280.624,-12.409l-293.032,293.033c-68.812,-82.201 -63.39,-204.817 12.408,-280.624Z" style="fill:#fff;fill-rule:nonzero;"/><path d="M90.836,60.4l10.328,12.22c43.301,-36.547 98.174,-56.609 154.837,-56.609c114.202,0 213.371,81.493 235.507,193.529l15.7,-3.08c-23.594,-119.516 -129.377,-206.458 -251.2,-206.458c-60.447,-0 -118.984,21.405 -165.172,60.398Z" style="fill:#fff;fill-rule:nonzero;"/><path d="M494.02,225.022c1.319,10.273 1.98,20.62 1.98,30.978c0,0 0,0 0,0.001c0,131.66 -108.34,240 -240,240c-63.628,-0 -124.715,-25.303 -169.706,-70.295c-44.991,-44.991 -70.294,-106.078 -70.294,-169.706c-0,-63.93 25.544,-125.283 70.914,-170.323l-11.273,-11.354c-48.262,48.026 -75.425,113.376 -75.425,181.463c-0,140.437 115.563,256 256,256c67.764,-0 132.831,-26.907 180.804,-74.766c48.147,-47.886 75.165,-113.115 74.98,-181.02c-0,-11.041 -0.705,-22.071 -2.111,-33.022l-15.869,2.044Z" style="fill:#fff;fill-rule:nonzero;"/></g></svg>